<svg xmlns="http://www.w3.org/2000/svg" xmlns:xlink="http://www.w3.org/1999/xlink" width="860" height="601.04"><rect width="860" height="601.04" rx="5" ry="5" class="a"/><svg y="0%" x="0%"><circle cx="20" cy="20" r="6" fill="#ff5f58"/><circle cx="40" cy="20" r="6" fill="#ffbd2e"/><circle cx="60" cy="20" r="6" fill="#18c132"/></svg><svg height="521.04" viewBox="0 0 80 52.104" width="800" x="25" xmlns="http://www.w3.org/2000/svg" xmlns:xlink="http://www.w3.org/1999/xlink" y="60"><style>@keyframes h{0%{transform:translateX(0)}1.7%{transform:translateX(-80px)}2.8%{transform:translateX(-160px)}3.3%{transform:translateX(-240px)}3.7%{transform:translateX(-320px)}3.8%{transform:translateX(-400px)}4%{transform:translateX(-480px)}4.3%{transform:translateX(-560px)}4.5%{transform:translateX(-640px)}4.6%{transform:translateX(-720px)}4.9%{transform:translateX(-800px)}5%{transform:translateX(-880px)}7.1%{transform:translateX(-960px)}9.3%{transform:translateX(-1040px)}11.3%{transform:translateX(-1120px)}11.4%{transform:translateX(-1200px)}13.5%{transform:translateX(-1280px)}15.7%{transform:translateX(-1360px)}17.7%{transform:translateX(-1440px)}17.8%{transform:translateX(-1520px)}20%{transform:translateX(-1600px)}22.1%{transform:translateX(-1680px)}24.2%{transform:translateX(-1760px)}24.3%{transform:translateX(-1840px)}24.4%{transform:translateX(-1920px)}24.6%{transform:translateX(-2000px)}26.6%{transform:translateX(-2080px)}99.6%{transform:translateX(-2160px)}to{transform:translateX(-2560px)}}.a{fill:#282d35}.f{fill:#b9c0cb;white-space:pre}</style><g font-family="Monaco,Consolas,Menlo,'Bitstream Vera Sans Mono','Powerline Symbols',monospace" font-size="1.67"><defs><symbol id="1"><text y="1.67" class="f">╔══════════════════════════════════════════════════════════════════╗</text></symbol><symbol id="2"><text y="1.67" class="f">║</text><text x="10.02" y="1.67" class="f">🤖</text><text x="13.026" y="1.67" class="f">Agent</text><text x="19.038" y="1.67" class="f">Meeting</text><text x="27.054" y="1.67" class="f">Platform</text><text x="36.072" y="1.67" class="f">—</text><text x="38.076" y="1.67" class="f">Live</text><text x="43.086" y="1.67" class="f">Demo</text><text x="65.13" y="1.67" class="f">║</text></symbol><symbol id="3"><text y="1.67" class="f">╚══════════════════════════════════════════════════════════════════╝</text></symbol><symbol id="4"><text y="1.67" class="f">📋</text><text x="3.006" y="1.67" class="f">Step</text><text x="8.016" y="1.67" class="f">1:</text><text x="11.022" y="1.67" class="f">Registering</text><text x="23.046" y="1.67" class="f">agents...</text></symbol><symbol id="5"><text x="3.006" y="1.67" class="f">✅</text><text x="5.01" y="1.67" class="f">Sarah-PM</text><text x="14.028" y="1.67" class="f">registered</text><text x="25.05" y="1.67" class="f">(05eca338...)</text></symbol><symbol id="6"><text x="3.006" y="1.67" class="f">✅</text><text x="5.01" y="1.67" class="f">Marcus-Arch</text><text x="17.034" y="1.67" class="f">registered</text><text x="28.056" y="1.67" class="f">(65fde95e...)</text></symbol><symbol id="7"><text x="3.006" y="1.67" class="f">✅</text><text x="5.01" y="1.67" class="f">Sam-Dev</text><text x="13.026" y="1.67" class="f">registered</text><text x="24.048" y="1.67" class="f">(0f1fabf0...)</text></symbol><symbol id="8"><text y="1.67" class="f">🏠</text><text x="3.006" y="1.67" class="f">Step</text><text x="8.016" y="1.67" class="f">2:</text><text x="11.022" y="1.67" class="f">Creating</text><text x="20.04" y="1.67" class="f">meeting</text><text x="28.056" y="1.67" class="f">room...</text></symbol><symbol id="9"><text x="3.006" y="1.67" class="f">🏠</text><text x="6.012" y="1.67" class="f">Room:</text><text x="12.024" y="1.67" class="f">Auth</text><text x="17.034" y="1.67" class="f">Strategy</text><text x="26.052" y="1.67" class="f">Decision</text></symbol><symbol id="10"><text x="3.006" y="1.67" class="f">📝</text><text x="6.012" y="1.67" class="f">Topic:</text><text x="13.026" y="1.67" class="f">Redesign</text><text x="22.044" y="1.67" class="f">authentication:</text><text x="38.076" y="1.67" class="f">implement</text><text x="48.096" y="1.67" class="f">passwordless</text><text x="61.122" y="1.67" class="f">(magic</text><text x="68.136" y="1.67" class="f">links)</text><text x="75.15" y="1.67" class="f">+</text><text x="77.154" y="1.67" class="f">SSO</text></symbol><symbol id="11"><text x="1.002" y="1.67" class="f">(Google/GitHub)</text></symbol><symbol id="12"><text y="1.67" class="f">👥</text><text x="3.006" y="1.67" class="f">Step</text><text x="8.016" y="1.67" class="f">3:</text><text x="11.022" y="1.67" class="f">Agents</text><text x="18.036" y="1.67" class="f">joining</text><text x="26.052" y="1.67" class="f">room...</text></symbol><symbol id="13"><text x="3.006" y="1.67" class="f">👋</text><text x="6.012" y="1.67" class="f">Sarah-PM</text><text x="15.03" y="1.67" class="f">joined</text></symbol><symbol id="14"><text x="3.006" y="1.67" class="f">👋</text><text x="6.012" y="1.67" class="f">Marcus-Arch</text><text x="18.036" y="1.67" class="f">joined</text></symbol><symbol id="15"><text x="3.006" y="1.67" class="f">👋</text><text x="6.012" y="1.67" class="f">Sam-Dev</text><text x="14.028" y="1.67" class="f">joined</text></symbol><symbol id="16"><text x="3.006" y="1.67" class="f">🟢</text><text x="6.012" y="1.67" class="f">Room</text><text x="11.022" y="1.67" class="f">activated</text></symbol><symbol id="17"><text y="1.67" class="f">🧠</text><text x="3.006" y="1.67" class="f">Step</text><text x="8.016" y="1.67" class="f">4:</text><text x="11.022" y="1.67" class="f">Starting</text><text x="20.04" y="1.67" class="f">LLM</text><text x="24.048" y="1.67" class="f">Moderator...</text></symbol><symbol id="18"><text x="3.006" y="1.67" class="f">🤖</text><text x="6.012" y="1.67" class="f">Moderator</text><text x="16.032" y="1.67" class="f">started</text><text x="24.048" y="1.67" class="f">—</text><text x="26.052" y="1.67" class="f">Phase:</text><text x="33.066" y="1.67" class="f">discussion</text></symbol><symbol id="19"><text y="1.67" class="f">💬</text><text x="3.006" y="1.67" class="f">Step</text><text x="8.016" y="1.67" class="f">5:</text><text x="11.022" y="1.67" class="f">Discussion</text></symbol><symbol id="20"><text x="3.006" y="1.67" class="f">┌─────────────────────────────────────────────────────────┐</text></symbol><symbol id="21"><text x="3.006" y="1.67" class="f">│</text><text x="6.012" y="1.67" class="f">Round</text><text x="12.024" y="1.67" class="f">1</text></symbol><symbol id="22"><text x="3.006" y="1.67" class="f">│</text><text x="6.012" y="1.67" class="f">💬</text><text x="9.018" y="1.67" class="f">[Sarah-PM]</text><text x="20.04" y="1.67" class="f">Let&apos;s</text><text x="26.052" y="1.67" class="f">start</text><text x="32.064" y="1.67" class="f">by</text><text x="35.07" y="1.67" class="f">reviewing</text><text x="45.09" y="1.67" class="f">the</text><text x="49.098" y="1.67" class="f">problem.</text><text x="58.116" y="1.67" class="f">Our</text><text x="62.124" y="1.67" class="f">current</text><text x="70.14" y="1.67" class="f">auth</text><text x="75.15" y="1.67" class="f">syste</text></symbol><symbol id="23"><text y="1.67" class="f">m</text><text x="2.004" y="1.67" class="f">has...</text></symbol><symbol id="24"><text x="3.006" y="1.67" class="f">│</text><text x="6.012" y="1.67" class="f">💬</text><text x="9.018" y="1.67" class="f">[Marcus-Arch]</text><text x="23.046" y="1.67" class="f">From</text><text x="28.056" y="1.67" class="f">an</text><text x="31.062" y="1.67" class="f">architecture</text><text x="44.088" y="1.67" class="f">standpoint,</text><text x="56.112" y="1.67" class="f">magic</text><text x="62.124" y="1.67" class="f">links</text><text x="68.136" y="1.67" class="f">are</text><text x="72.144" y="1.67" class="f">simpler.</text></symbol><symbol id="25"><text x="1.002" y="1.67" class="f">SSO</text><text x="5.01" y="1.67" class="f">add...</text></symbol><symbol id="26"><text x="3.006" y="1.67" class="f">│</text><text x="6.012" y="1.67" class="f">⚠️</text><text x="9.018" y="1.67" class="f">[Sam-Dev]</text><text x="19.038" y="1.67" class="f">Risk:</text><text x="25.05" y="1.67" class="f">Magic</text><text x="31.062" y="1.67" class="f">link</text><text x="36.072" y="1.67" class="f">emails</text><text x="43.086" y="1.67" class="f">might</text><text x="49.098" y="1.67" class="f">get</text><text x="53.106" y="1.67" class="f">flagged</text><text x="61.122" y="1.67" class="f">as</text><text x="64.128" y="1.67" class="f">spam.</text><text x="70.14" y="1.67" class="f">We</text><text x="73.146" y="1.67" class="f">need</text><text x="78.156" y="1.67" class="f">pr</text></symbol><symbol id="27"><text y="1.67" class="f">oper...</text></symbol><symbol id="28"><text x="3.006" y="1.67" class="f">│</text><text x="6.012" y="1.67" class="f">Round</text><text x="12.024" y="1.67" class="f">2</text></symbol><symbol id="29"><text x="3.006" y="1.67" class="f">│</text><text x="6.012" y="1.67" class="f">❓</text><text x="8.016" y="1.67" class="f">[Sarah-PM]</text><text x="19.038" y="1.67" class="f">What&apos;s</text><text x="26.052" y="1.67" class="f">the</text><text x="30.06" y="1.67" class="f">engineering</text><text x="42.084" y="1.67" class="f">effort</text><text x="49.098" y="1.67" class="f">estimate</text><text x="58.116" y="1.67" class="f">for</text><text x="62.124" y="1.67" class="f">magic</text><text x="68.136" y="1.67" class="f">links</text><text x="74.148" y="1.67" class="f">vs</text><text x="77.154" y="1.67" class="f">SSO</text></symbol><symbol id="30"><text y="1.67" class="f">?</text></symbol><symbol id="31"><text x="3.006" y="1.67" class="f">│</text><text x="6.012" y="1.67" class="f">💬</text><text x="9.018" y="1.67" class="f">[Marcus-Arch]</text><text x="23.046" y="1.67" class="f">I&apos;d</text><text x="27.054" y="1.67" class="f">estimate</text><text x="36.072" y="1.67" class="f">2</text><text x="38.076" y="1.67" class="f">weeks</text><text x="44.088" y="1.67" class="f">for</text><text x="48.096" y="1.67" class="f">magic</text><text x="54.108" y="1.67" class="f">links,</text><text x="61.122" y="1.67" class="f">1</text><text x="63.126" y="1.67" class="f">week</text><text x="68.136" y="1.67" class="f">for</text><text x="72.144" y="1.67" class="f">SSO</text><text x="76.152" y="1.67" class="f">inte</text></symbol><symbol id="32"><text y="1.67" class="f">gration....</text></symbol><symbol id="33"><text x="3.006" y="1.67" class="f">│</text><text x="6.012" y="1.67" class="f">💬</text><text x="9.018" y="1.67" class="f">[Sam-Dev]</text><text x="19.038" y="1.67" class="f">Agreed</text><text x="26.052" y="1.67" class="f">on</text><text x="29.058" y="1.67" class="f">the</text><text x="33.066" y="1.67" class="f">approach.</text><text x="43.086" y="1.67" class="f">I</text><text x="45.09" y="1.67" class="f">can</text><text x="49.098" y="1.67" class="f">start</text><text x="55.11" y="1.67" class="f">on</text><text x="58.116" y="1.67" class="f">the</text><text x="62.124" y="1.67" class="f">magic</text><text x="68.136" y="1.67" class="f">link</text><text x="73.146" y="1.67" class="f">flow</text><text x="78.156" y="1.67" class="f">th</text></symbol><symbol id="34"><text y="1.67" class="f">is</text><text x="3.006" y="1.67" class="f">s...</text></symbol><symbol id="35"><text x="3.006" y="1.67" class="f">│</text><text x="6.012" y="1.67" class="f">Round</text><text x="12.024" y="1.67" class="f">3</text></symbol><symbol id="36"><text x="3.006" y="1.67" class="f">│</text><text x="6.012" y="1.67" class="f">💡</text><text x="9.018" y="1.67" class="f">[Sarah-PM]</text><text x="20.04" y="1.67" class="f">Proposal:</text><text x="30.06" y="1.67" class="f">Implement</text><text x="40.08" y="1.67" class="f">passwordless</text><text x="53.106" y="1.67" class="f">auth</text><text x="58.116" y="1.67" class="f">(magic</text><text x="65.13" y="1.67" class="f">links)</text><text x="72.144" y="1.67" class="f">+</text><text x="74.148" y="1.67" class="f">SSO</text><text x="78.156" y="1.67" class="f">(G</text></symbol><symbol id="37"><text y="1.67" class="f">oogle...</text></symbol><symbol id="38"><text x="3.006" y="1.67" class="f">│</text><text x="6.012" y="1.67" class="f">💬</text><text x="9.018" y="1.67" class="f">[Marcus-Arch]</text><text x="23.046" y="1.67" class="f">The</text><text x="27.054" y="1.67" class="f">proposal</text><text x="36.072" y="1.67" class="f">looks</text><text x="42.084" y="1.67" class="f">solid.</text><text x="49.098" y="1.67" class="f">I&apos;ll</text><text x="54.108" y="1.67" class="f">lead</text><text x="59.118" y="1.67" class="f">the</text><text x="63.126" y="1.67" class="f">architecture</text><text x="76.152" y="1.67" class="f">desi</text></symbol><symbol id="39"><text y="1.67" class="f">gn.</text></symbol><symbol id="40"><text x="3.006" y="1.67" class="f">│</text><text x="6.012" y="1.67" class="f">💬</text><text x="9.018" y="1.67" class="f">[Sam-Dev]</text><text x="19.038" y="1.67" class="f">One</text><text x="23.046" y="1.67" class="f">concern:</text><text x="32.064" y="1.67" class="f">we</text><text x="35.07" y="1.67" class="f">need</text><text x="40.08" y="1.67" class="f">a</text><text x="42.084" y="1.67" class="f">fallback</text><text x="51.102" y="1.67" class="f">for</text><text x="55.11" y="1.67" class="f">users</text><text x="61.122" y="1.67" class="f">without</text><text x="69.138" y="1.67" class="f">email</text><text x="75.15" y="1.67" class="f">acces</text></symbol><symbol id="41"><text y="1.67" class="f">s.</text></symbol><symbol id="42"><text x="3.006" y="1.67" class="f">└─────────────────────────────────────────────────────────┘</text></symbol><symbol id="43"><text y="1.67" class="f">🗳️</text><text x="5.01" y="1.67" class="f">Step</text><text x="10.02" y="1.67" class="f">6:</text><text x="13.026" y="1.67" class="f">Voting</text><text x="20.04" y="1.67" class="f">on</text><text x="23.046" y="1.67" class="f">proposal...</text></symbol><symbol id="44"><text x="3.006" y="1.67" class="f">💡</text><text x="6.012" y="1.67" class="f">Proposal</text><text x="15.03" y="1.67" class="f">submitted</text><text x="25.05" y="1.67" class="f">by</text><text x="28.056" y="1.67" class="f">Sarah-PM</text></symbol><symbol id="45"><text x="3.006" y="1.67" class="f">🗳️</text><text x="8.016" y="1.67" class="f">Marcus-Arch:</text><text x="21.042" y="1.67" class="f">✅</text><text x="23.046" y="1.67" class="f">YES</text></symbol><symbol id="46"><text x="3.006" y="1.67" class="f">🗳️</text><text x="8.016" y="1.67" class="f">Sam-Dev:</text><text x="17.034" y="1.67" class="f">✅</text><text x="19.038" y="1.67" class="f">YES</text></symbol><symbol id="47"><text y="1.67" class="f">🏁</text><text x="3.006" y="1.67" class="f">Step</text><text x="8.016" y="1.67" class="f">7:</text><text x="11.022" y="1.67" class="f">Closing</text><text x="19.038" y="1.67" class="f">meeting...</text></symbol><symbol id="48"><text x="3.006" y="1.67" class="f">✅</text><text x="5.01" y="1.67" class="f">Meeting</text><text x="13.026" y="1.67" class="f">closed</text></symbol><symbol id="49"><text x="3.006" y="1.67" class="f">📊</text><text x="6.012" y="1.67" class="f">Messages:</text><text x="16.032" y="1.67" class="f">0</text></symbol><symbol id="50"><text x="3.006" y="1.67" class="f">📊</text><text x="6.012" y="1.67" class="f">Decisions:</text><text x="17.034" y="1.67" class="f">1</text></symbol><symbol id="51"><text x="3.006" y="1.67" class="f">📊</text><text x="6.012" y="1.67" class="f">Action</text><text x="13.026" y="1.67" class="f">Items:</text><text x="20.04" y="1.67" class="f">0</text></symbol><symbol id="52"><text y="1.67" class="f">║</text><text x="23.046" y="1.67" class="f">📊</text><text x="26.052" y="1.67" class="f">Meeting</text><text x="34.068" y="1.67" class="f">Results</text><text x="65.13" y="1.67" class="f">║</text></symbol><symbol id="53"><text y="1.67" class="f">╠══════════════════════════════════════════════════════════════════╣</text></symbol><symbol id="54"><text y="1.67" class="f">║</text><text x="3.006" y="1.67" class="f">Total</text><text x="9.018" y="1.67" class="f">Messages:</text><text x="20.04" y="1.67" class="f">14</text><text x="66.132" y="1.67" class="f">║</text></symbol><symbol id="55"><text y="1.67" class="f">║</text><text x="3.006" y="1.67" class="f">Decisions:</text><text x="20.04" y="1.67" class="f">1</text><text x="66.132" y="1.67" class="f">║</text></symbol><symbol id="56"><text y="1.67" class="f">║</text><text x="3.006" y="1.67" class="f">Action</text><text x="10.02" y="1.67" class="f">Items:</text><text x="20.04" y="1.67" class="f">0</text><text x="66.132" y="1.67" class="f">║</text></symbol><symbol id="57"><text y="1.67" class="f">║</text><text x="3.006" y="1.67" class="f">✅</text><text x="5.01" y="1.67" class="f">Decision</text><text x="14.028" y="1.67" class="f">on:</text><text x="18.036" y="1.67" class="f">Implement</text><text x="28.056" y="1.67" class="f">passwordless</text><text x="41.082" y="1.67" class="f">auth</text><text x="46.092" y="1.67" class="f">(magic</text><text x="53.106" y="1.67" class="f">links)</text><text x="61.122" y="1.67" class="f">║</text></symbol><symbol id="58"><text y="1.67" class="f">📝</text><text x="3.006" y="1.67" class="f">Transcript</text><text x="14.028" y="1.67" class="f">(last</text><text x="20.04" y="1.67" class="f">10</text><text x="23.046" y="1.67" class="f">messages):</text></symbol><symbol id="59"><text x="3.006" y="1.67" class="f">──────────────────────────────────────────────────────────</text></symbol><symbol id="60"><text x="3.006" y="1.67" class="f">❓</text><text x="5.01" y="1.67" class="f">[QUESTION</text><text x="18.036" y="1.67" class="f">]</text><text x="20.04" y="1.67" class="f">05eca338:</text><text x="30.06" y="1.67" class="f">What&apos;s</text><text x="37.074" y="1.67" class="f">the</text><text x="41.082" y="1.67" class="f">engineering</text><text x="53.106" y="1.67" class="f">effort</text><text x="60.12" y="1.67" class="f">estimate</text><text x="69.138" y="1.67" class="f">for</text><text x="73.146" y="1.67" class="f">magic</text><text x="79.158" y="1.67" class="f">l</text></symbol><symbol id="61"><text y="1.67" class="f">inks</text><text x="5.01" y="1.67" class="f">vs</text><text x="8.016" y="1.67" class="f">SSO?</text></symbol><symbol id="62"><text x="3.006" y="1.67" class="f">💬</text><text x="6.012" y="1.67" class="f">[CHAT</text><text x="19.038" y="1.67" class="f">]</text><text x="21.042" y="1.67" class="f">65fde95e:</text><text x="31.062" y="1.67" class="f">I&apos;d</text><text x="35.07" y="1.67" class="f">estimate</text><text x="44.088" y="1.67" class="f">2</text><text x="46.092" y="1.67" class="f">weeks</text><text x="52.104" y="1.67" class="f">for</text><text x="56.112" y="1.67" class="f">magic</text><text x="62.124" y="1.67" class="f">links,</text><text x="69.138" y="1.67" class="f">1</text><text x="71.142" y="1.67" class="f">week</text><text x="76.152" y="1.67" class="f">for</text></symbol><symbol id="63"><text y="1.67" class="f">SSO</text><text x="4.008" y="1.67" class="f">integration.</text><text x="17.034" y="1.67" class="f">We</text><text x="20.04" y="1.67" class="f">c...</text></symbol><symbol id="64"><text x="3.006" y="1.67" class="f">💬</text><text x="6.012" y="1.67" class="f">[CHAT</text><text x="19.038" y="1.67" class="f">]</text><text x="21.042" y="1.67" class="f">0f1fabf0:</text><text x="31.062" y="1.67" class="f">Agreed</text><text x="38.076" y="1.67" class="f">on</text><text x="41.082" y="1.67" class="f">the</text><text x="45.09" y="1.67" class="f">approach.</text><text x="55.11" y="1.67" class="f">I</text><text x="57.114" y="1.67" class="f">can</text><text x="61.122" y="1.67" class="f">start</text><text x="67.134" y="1.67" class="f">on</text><text x="70.14" y="1.67" class="f">the</text><text x="74.148" y="1.67" class="f">magic</text></symbol><symbol id="65"><text y="1.67" class="f">link</text><text x="5.01" y="1.67" class="f">flow</text><text x="10.02" y="1.67" class="f">this</text><text x="15.03" y="1.67" class="f">sprint...</text></symbol><symbol id="66"><text y="1.67" class="f">s)</text><text x="3.006" y="1.67" class="f">+</text><text x="5.01" y="1.67" class="f">SSO</text><text x="9.018" y="1.67" class="f">(Google/GitH...</text></symbol><symbol id="67"><text x="3.006" y="1.67" class="f">💬</text><text x="6.012" y="1.67" class="f">[CHAT</text><text x="19.038" y="1.67" class="f">]</text><text x="21.042" y="1.67" class="f">65fde95e:</text><text x="31.062" y="1.67" class="f">The</text><text x="35.07" y="1.67" class="f">proposal</text><text x="44.088" y="1.67" class="f">looks</text><text x="50.1" y="1.67" class="f">solid.</text><text x="57.114" y="1.67" class="f">I&apos;ll</text><text x="62.124" y="1.67" class="f">lead</text><text x="67.134" y="1.67" class="f">the</text><text x="71.142" y="1.67" class="f">architect</text></symbol><symbol id="68"><text y="1.67" class="f">ure</text><text x="4.008" y="1.67" class="f">design.</text></symbol><symbol id="69"><text x="3.006" y="1.67" class="f">💬</text><text x="6.012" y="1.67" class="f">[CHAT</text><text x="19.038" y="1.67" class="f">]</text><text x="21.042" y="1.67" class="f">0f1fabf0:</text><text x="31.062" y="1.67" class="f">One</text><text x="35.07" y="1.67" class="f">concern:</text><text x="44.088" y="1.67" class="f">we</text><text x="47.094" y="1.67" class="f">need</text><text x="52.104" y="1.67" class="f">a</text><text x="54.108" y="1.67" class="f">fallback</text><text x="63.126" y="1.67" class="f">for</text><text x="67.134" y="1.67" class="f">users</text><text x="73.146" y="1.67" class="f">without</text></symbol><symbol id="70"><text x="1.002" y="1.67" class="f">email</text><text x="7.014" y="1.67" class="f">access.</text></symbol><symbol id="71"><text x="3.006" y="1.67" class="f">💡</text><text x="6.012" y="1.67" class="f">[PROPOSAL</text><text x="19.038" y="1.67" class="f">]</text><text x="21.042" y="1.67" class="f">05eca338:</text><text x="31.062" y="1.67" class="f">Implement</text><text x="41.082" y="1.67" class="f">passwordless</text><text x="54.108" y="1.67" class="f">auth</text><text x="59.118" y="1.67" class="f">(magic</text><text x="66.132" y="1.67" class="f">links)</text><text x="73.146" y="1.67" class="f">+</text><text x="75.15" y="1.67" class="f">SSO</text><text x="79.158" y="1.67" class="f">(</text></symbol><symbol id="72"><text y="1.67" class="f">Google/GitHub).</text><text x="16.032" y="1.67" class="f">3-wee...</text></symbol><symbol id="73"><text x="3.006" y="1.67" class="f">🗳️</text><text x="7.014" y="1.67" class="f">[VOTE</text><text x="20.04" y="1.67" class="f">]</text><text x="22.044" y="1.67" class="f">65fde95e:</text><text x="32.064" y="1.67" class="f">{&quot;vote&quot;:</text><text x="41.082" y="1.67" class="f">&quot;yes&quot;,</text><text x="48.096" y="1.67" class="f">&quot;reasoning&quot;:</text><text x="61.122" y="1.67" class="f">&quot;Solid</text><text x="68.136" y="1.67" class="f">plan,</text><text x="74.148" y="1.67" class="f">good</text><text x="79.158" y="1.67" class="f">t</text></symbol><symbol id="74"><text y="1.67" class="f">imeline.&quot;}</text></symbol><symbol id="75"><text x="3.006" y="1.67" class="f">🗳️</text><text x="7.014" y="1.67" class="f">[VOTE</text><text x="20.04" y="1.67" class="f">]</text><text x="22.044" y="1.67" class="f">0f1fabf0:</text><text x="32.064" y="1.67" class="f">{&quot;vote&quot;:</text><text x="41.082" y="1.67" class="f">&quot;yes&quot;,</text><text x="48.096" y="1.67" class="f">&quot;reasoning&quot;:</text><text x="61.122" y="1.67" class="f">&quot;Solid</text><text x="68.136" y="1.67" class="f">plan,</text><text x="74.148" y="1.67" class="f">good</text><text x="79.158" y="1.67" class="f">t</text></symbol><symbol id="76"><text x="3.006" y="1.67" class="f">📝</text><text x="6.012" y="1.67" class="f">[SUMMARY</text><text x="19.038" y="1.67" class="f">]</text><text x="21.042" y="1.67" class="f">93c9616a:</text><text x="31.062" y="1.67" class="f">#</text><text x="33.066" y="1.67" class="f">📋</text><text x="36.072" y="1.67" class="f">Meeting</text><text x="44.088" y="1.67" class="f">Minutes</text></symbol><symbol id="77"><text y="1.67" class="f">##</text><text x="3.006" y="1.67" class="f">Meeting</text><text x="11.022" y="1.67" class="f">Minutes:</text><text x="20.04" y="1.67" class="f">Authentication</text><text x="35.07" y="1.67" class="f">Strategy</text><text x="44.088" y="1.67" class="f">Discu...</text></symbol><symbol id="a"><path fill="transparent" d="M0 0h80v24H0z"/></symbol></defs><path class="a" d="M0 0h80v52.104H0z"/><g style="animation-duration:4.958841s;animation-iteration-count:infinite;animation-name:h;animation-timing-function:steps(1,end)"><svg width="2640"><svg><use xlink:href="#a"/></svg><svg x="80"><use xlink:href="#a"/><use xlink:href="#1"/><use xlink:href="#2" y="2.171"/><use xlink:href="#3" y="4.342"/><use xlink:href="#4" y="8.684"/></svg><svg x="160"><use xlink:href="#a"/><use xlink:href="#1"/><use xlink:href="#2" y="2.171"/><use xlink:href="#3" y="4.342"/><use xlink:href="#4" y="8.684"/><use xlink:href="#5" y="10.855"/></svg><svg x="240"><use xlink:href="#a"/><use xlink:href="#1"/><use xlink:href="#2" y="2.171"/><use xlink:href="#3" y="4.342"/><use xlink:href="#4" y="8.684"/><use xlink:href="#5" y="10.855"/><use xlink:href="#6" y="13.026"/></svg><svg x="320"><use xlink:href="#a"/><use xlink:href="#1"/><use xlink:href="#2" y="2.171"/><use xlink:href="#3" y="4.342"/><use xlink:href="#4" y="8.684"/><use xlink:href="#5" y="10.855"/><use xlink:href="#6" y="13.026"/><use xlink:href="#7" y="15.197"/><use xlink:href="#8" y="19.539"/></svg><svg x="400"><use xlink:href="#a"/><use xlink:href="#1"/><use xlink:href="#2" y="2.171"/><use xlink:href="#3" y="4.342"/><use xlink:href="#4" y="8.684"/><use xlink:href="#5" y="10.855"/><use xlink:href="#6" y="13.026"/><use xlink:href="#7" y="15.197"/><use xlink:href="#8" y="19.539"/><use xlink:href="#9" y="21.71"/><use xlink:href="#10" y="23.881"/><use xlink:href="#11" y="26.052"/><use xlink:href="#12" y="30.394"/></svg><svg x="480"><use xlink:href="#a"/><use xlink:href="#1"/><use xlink:href="#2" y="2.171"/><use xlink:href="#3" y="4.342"/><use xlink:href="#4" y="8.684"/><use xlink:href="#5" y="10.855"/><use xlink:href="#6" y="13.026"/><use xlink:href="#7" y="15.197"/><use xlink:href="#8" y="19.539"/><use xlink:href="#9" y="21.71"/><use xlink:href="#10" y="23.881"/><use xlink:href="#11" y="26.052"/><use xlink:href="#12" y="30.394"/><use xlink:href="#13" y="32.565"/></svg><svg x="560"><use xlink:href="#a"/><use xlink:href="#1"/><use xlink:href="#2" y="2.171"/><use xlink:href="#3" y="4.342"/><use xlink:href="#4" y="8.684"/><use xlink:href="#5" y="10.855"/><use xlink:href="#6" y="13.026"/><use xlink:href="#7" y="15.197"/><use xlink:href="#8" y="19.539"/><use xlink:href="#9" y="21.71"/><use xlink:href="#10" y="23.881"/><use xlink:href="#11" y="26.052"/><use xlink:href="#12" y="30.394"/><use xlink:href="#13" y="32.565"/><use xlink:href="#14" y="34.736"/></svg><svg x="640"><use xlink:href="#a"/><use xlink:href="#1"/><use xlink:href="#2" y="2.171"/><use xlink:href="#3" y="4.342"/><use xlink:href="#4" y="8.684"/><use xlink:href="#5" y="10.855"/><use xlink:href="#6" y="13.026"/><use xlink:href="#7" y="15.197"/><use xlink:href="#8" y="19.539"/><use xlink:href="#9" y="21.71"/><use xlink:href="#10" y="23.881"/><use xlink:href="#11" y="26.052"/><use xlink:href="#12" y="30.394"/><use xlink:href="#13" y="32.565"/><use xlink:href="#14" y="34.736"/><use xlink:href="#15" y="36.907"/></svg><svg x="720"><use xlink:href="#a"/><use xlink:href="#1"/><use xlink:href="#2" y="2.171"/><use xlink:href="#3" y="4.342"/><use xlink:href="#4" y="8.684"/><use xlink:href="#5" y="10.855"/><use xlink:href="#6" y="13.026"/><use xlink:href="#7" y="15.197"/><use xlink:href="#8" y="19.539"/><use xlink:href="#9" y="21.71"/><use xlink:href="#10" y="23.881"/><use xlink:href="#11" y="26.052"/><use xlink:href="#12" y="30.394"/><use xlink:href="#13" y="32.565"/><use xlink:href="#14" y="34.736"/><use xlink:href="#15" y="36.907"/><use xlink:href="#16" y="39.078"/><use xlink:href="#17" y="43.42"/></svg><svg x="800"><use xlink:href="#a"/><use xlink:href="#4" y="2.171"/><use xlink:href="#5" y="4.342"/><use xlink:href="#6" y="6.513"/><use xlink:href="#7" y="8.684"/><use xlink:href="#8" y="13.026"/><use xlink:href="#9" y="15.197"/><use xlink:href="#10" y="17.368"/><use xlink:href="#11" y="19.539"/><use xlink:href="#12" y="23.881"/><use xlink:href="#13" y="26.052"/><use xlink:href="#14" y="28.223"/><use xlink:href="#15" y="30.394"/><use xlink:href="#16" y="32.565"/><use xlink:href="#17" y="36.907"/><use xlink:href="#18" y="39.078"/><use xlink:href="#19" y="43.42"/><use xlink:href="#20" y="45.591"/><use xlink:href="#21" y="47.762"/></svg><svg x="880"><use xlink:href="#a"/><use xlink:href="#5"/><use xlink:href="#6" y="2.171"/><use xlink:href="#7" y="4.342"/><use xlink:href="#8" y="8.684"/><use xlink:href="#9" y="10.855"/><use xlink:href="#10" y="13.026"/><use xlink:href="#11" y="15.197"/><use xlink:href="#12" y="19.539"/><use xlink:href="#13" y="21.71"/><use xlink:href="#14" y="23.881"/><use xlink:href="#15" y="26.052"/><use xlink:href="#16" y="28.223"/><use xlink:href="#17" y="32.565"/><use xlink:href="#18" y="34.736"/><use xlink:href="#19" y="39.078"/><use xlink:href="#20" y="41.249"/><use xlink:href="#21" y="43.42"/><use xlink:href="#22" y="45.591"/><use xlink:href="#23" y="47.762"/></svg><svg x="960"><use xlink:href="#a"/><use xlink:href="#7"/><use xlink:href="#8" y="4.342"/><use xlink:href="#9" y="6.513"/><use xlink:href="#10" y="8.684"/><use xlink:href="#11" y="10.855"/><use xlink:href="#12" y="15.197"/><use xlink:href="#13" y="17.368"/><use xlink:href="#14" y="19.539"/><use xlink:href="#15" y="21.71"/><use xlink:href="#16" y="23.881"/><use xlink:href="#17" y="28.223"/><use xlink:href="#18" y="30.394"/><use xlink:href="#19" y="34.736"/><use xlink:href="#20" y="36.907"/><use xlink:href="#21" y="39.078"/><use xlink:href="#22" y="41.249"/><use xlink:href="#23" y="43.42"/><use xlink:href="#24" y="45.591"/><use xlink:href="#25" y="47.762"/></svg><svg x="1040"><use xlink:href="#a"/><use xlink:href="#8"/><use xlink:href="#9" y="2.171"/><use xlink:href="#10" y="4.342"/><use xlink:href="#11" y="6.513"/><use xlink:href="#12" y="10.855"/><use xlink:href="#13" y="13.026"/><use xlink:href="#14" y="15.197"/><use xlink:href="#15" y="17.368"/><use xlink:href="#16" y="19.539"/><use xlink:href="#17" y="23.881"/><use xlink:href="#18" y="26.052"/><use xlink:href="#19" y="30.394"/><use xlink:href="#20" y="32.565"/><use xlink:href="#21" y="34.736"/><use xlink:href="#22" y="36.907"/><use xlink:href="#23" y="39.078"/><use xlink:href="#24" y="41.249"/><use xlink:href="#25" y="43.42"/><use xlink:href="#26" y="45.591"/><use xlink:href="#27" y="47.762"/></svg><svg x="1120"><use xlink:href="#a"/><use xlink:href="#9"/><use xlink:href="#10" y="2.171"/><use xlink:href="#11" y="4.342"/><use xlink:href="#12" y="8.684"/><use xlink:href="#13" y="10.855"/><use xlink:href="#14" y="13.026"/><use xlink:href="#15" y="15.197"/><use xlink:href="#16" y="17.368"/><use xlink:href="#17" y="21.71"/><use xlink:href="#18" y="23.881"/><use xlink:href="#19" y="28.223"/><use xlink:href="#20" y="30.394"/><use xlink:href="#21" y="32.565"/><use xlink:href="#22" y="34.736"/><use xlink:href="#23" y="36.907"/><use xlink:href="#24" y="39.078"/><use xlink:href="#25" y="41.249"/><use xlink:href="#26" y="43.42"/><use xlink:href="#27" y="45.591"/><use xlink:href="#28" y="47.762"/></svg><svg x="1200"><use xlink:href="#a"/><use xlink:href="#11"/><use xlink:href="#12" y="4.342"/><use xlink:href="#13" y="6.513"/><use xlink:href="#14" y="8.684"/><use xlink:href="#15" y="10.855"/><use xlink:href="#16" y="13.026"/><use xlink:href="#17" y="17.368"/><use xlink:href="#18" y="19.539"/><use xlink:href="#19" y="23.881"/><use xlink:href="#20" y="26.052"/><use xlink:href="#21" y="28.223"/><use xlink:href="#22" y="30.394"/><use xlink:href="#23" y="32.565"/><use xlink:href="#24" y="34.736"/><use xlink:href="#25" y="36.907"/><use xlink:href="#26" y="39.078"/><use xlink:href="#27" y="41.249"/><use xlink:href="#28" y="43.42"/><use xlink:href="#29" y="45.591"/><use xlink:href="#30" y="47.762"/></svg><svg x="1280"><use xlink:href="#a"/><use xlink:href="#12"/><use xlink:href="#13" y="2.171"/><use xlink:href="#14" y="4.342"/><use xlink:href="#15" y="6.513"/><use xlink:href="#16" y="8.684"/><use xlink:href="#17" y="13.026"/><use xlink:href="#18" y="15.197"/><use xlink:href="#19" y="19.539"/><use xlink:href="#20" y="21.71"/><use xlink:href="#21" y="23.881"/><use xlink:href="#22" y="26.052"/><use xlink:href="#23" y="28.223"/><use xlink:href="#24" y="30.394"/><use xlink:href="#25" y="32.565"/><use xlink:href="#26" y="34.736"/><use xlink:href="#27" y="36.907"/><use xlink:href="#28" y="39.078"/><use xlink:href="#29" y="41.249"/><use xlink:href="#30" y="43.42"/><use xlink:href="#31" y="45.591"/><use xlink:href="#32" y="47.762"/></svg><svg x="1360"><use xlink:href="#a"/><use xlink:href="#14"/><use xlink:href="#15" y="2.171"/><use xlink:href="#16" y="4.342"/><use xlink:href="#17" y="8.684"/><use xlink:href="#18" y="10.855"/><use xlink:href="#19" y="15.197"/><use xlink:href="#20" y="17.368"/><use xlink:href="#21" y="19.539"/><use xlink:href="#22" y="21.71"/><use xlink:href="#23" y="23.881"/><use xlink:href="#24" y="26.052"/><use xlink:href="#25" y="28.223"/><use xlink:href="#26" y="30.394"/><use xlink:href="#27" y="32.565"/><use xlink:href="#28" y="34.736"/><use xlink:href="#29" y="36.907"/><use xlink:href="#30" y="39.078"/><use xlink:href="#31" y="41.249"/><use xlink:href="#32" y="43.42"/><use xlink:href="#33" y="45.591"/><use xlink:href="#34" y="47.762"/></svg><svg x="1440"><use xlink:href="#a"/><use xlink:href="#15"/><use xlink:href="#16" y="2.171"/><use xlink:href="#17" y="6.513"/><use xlink:href="#18" y="8.684"/><use xlink:href="#19" y="13.026"/><use xlink:href="#20" y="15.197"/><use xlink:href="#21" y="17.368"/><use xlink:href="#22" y="19.539"/><use xlink:href="#23" y="21.71"/><use xlink:href="#24" y="23.881"/><use xlink:href="#25" y="26.052"/><use xlink:href="#26" y="28.223"/><use xlink:href="#27" y="30.394"/><use xlink:href="#28" y="32.565"/><use xlink:href="#29" y="34.736"/><use xlink:href="#30" y="36.907"/><use xlink:href="#31" y="39.078"/><use xlink:href="#32" y="41.249"/><use xlink:href="#33" y="43.42"/><use xlink:href="#34" y="45.591"/><use xlink:href="#35" y="47.762"/></svg><svg x="1520"><use xlink:href="#a"/><use xlink:href="#17" y="2.171"/><use xlink:href="#18" y="4.342"/><use xlink:href="#19" y="8.684"/><use xlink:href="#20" y="10.855"/><use xlink:href="#21" y="13.026"/><use xlink:href="#22" y="15.197"/><use xlink:href="#23" y="17.368"/><use xlink:href="#24" y="19.539"/><use xlink:href="#25" y="21.71"/><use xlink:href="#26" y="23.881"/><use xlink:href="#27" y="26.052"/><use xlink:href="#28" y="28.223"/><use xlink:href="#29" y="30.394"/><use xlink:href="#30" y="32.565"/><use xlink:href="#31" y="34.736"/><use xlink:href="#32" y="36.907"/><use xlink:href="#33" y="39.078"/><use xlink:href="#34" y="41.249"/><use xlink:href="#35" y="43.42"/><use xlink:href="#36" y="45.591"/><use xlink:href="#37" y="47.762"/></svg><svg x="1600"><use xlink:href="#a"/><use xlink:href="#18"/><use xlink:href="#19" y="4.342"/><use xlink:href="#20" y="6.513"/><use xlink:href="#21" y="8.684"/><use xlink:href="#22" y="10.855"/><use xlink:href="#23" y="13.026"/><use xlink:href="#24" y="15.197"/><use xlink:href="#25" y="17.368"/><use xlink:href="#26" y="19.539"/><use xlink:href="#27" y="21.71"/><use xlink:href="#28" y="23.881"/><use xlink:href="#29" y="26.052"/><use xlink:href="#30" y="28.223"/><use xlink:href="#31" y="30.394"/><use xlink:href="#32" y="32.565"/><use xlink:href="#33" y="34.736"/><use xlink:href="#34" y="36.907"/><use xlink:href="#35" y="39.078"/><use xlink:href="#36" y="41.249"/><use xlink:href="#37" y="43.42"/><use xlink:href="#38" y="45.591"/><use xlink:href="#39" y="47.762"/></svg><svg x="1680"><use xlink:href="#a"/><use xlink:href="#19"/><use xlink:href="#20" y="2.171"/><use xlink:href="#21" y="4.342"/><use xlink:href="#22" y="6.513"/><use xlink:href="#23" y="8.684"/><use xlink:href="#24" y="10.855"/><use xlink:href="#25" y="13.026"/><use xlink:href="#26" y="15.197"/><use xlink:href="#27" y="17.368"/><use xlink:href="#28" y="19.539"/><use xlink:href="#29" y="21.71"/><use xlink:href="#30" y="23.881"/><use xlink:href="#31" y="26.052"/><use xlink:href="#32" y="28.223"/><use xlink:href="#33" y="30.394"/><use xlink:href="#34" y="32.565"/><use xlink:href="#35" y="34.736"/><use xlink:href="#36" y="36.907"/><use xlink:href="#37" y="39.078"/><use xlink:href="#38" y="41.249"/><use xlink:href="#39" y="43.42"/><use xlink:href="#40" y="45.591"/><use xlink:href="#41" y="47.762"/></svg><svg x="1760"><use xlink:href="#a"/><use xlink:href="#22"/><use xlink:href="#23" y="2.171"/><use xlink:href="#24" y="4.342"/><use xlink:href="#25" y="6.513"/><use xlink:href="#26" y="8.684"/><use xlink:href="#27" y="10.855"/><use xlink:href="#28" y="13.026"/><use xlink:href="#29" y="15.197"/><use xlink:href="#30" y="17.368"/><use xlink:href="#31" y="19.539"/><use xlink:href="#32" y="21.71"/><use xlink:href="#33" y="23.881"/><use xlink:href="#34" y="26.052"/><use xlink:href="#35" y="28.223"/><use xlink:href="#36" y="30.394"/><use xlink:href="#37" y="32.565"/><use xlink:href="#38" y="34.736"/><use xlink:href="#39" y="36.907"/><use xlink:href="#40" y="39.078"/><use xlink:href="#41" y="41.249"/><use xlink:href="#42" y="43.42"/><use xlink:href="#43" y="47.762"/></svg><svg x="1840"><use xlink:href="#a"/><use xlink:href="#23"/><use xlink:href="#24" y="2.171"/><use xlink:href="#25" y="4.342"/><use xlink:href="#26" y="6.513"/><use xlink:href="#27" y="8.684"/><use xlink:href="#28" y="10.855"/><use xlink:href="#29" y="13.026"/><use xlink:href="#30" y="15.197"/><use xlink:href="#31" y="17.368"/><use xlink:href="#32" y="19.539"/><use xlink:href="#33" y="21.71"/><use xlink:href="#34" y="23.881"/><use xlink:href="#35" y="26.052"/><use xlink:href="#36" y="28.223"/><use xlink:href="#37" y="30.394"/><use xlink:href="#38" y="32.565"/><use xlink:href="#39" y="34.736"/><use xlink:href="#40" y="36.907"/><use xlink:href="#41" y="39.078"/><use xlink:href="#42" y="41.249"/><use xlink:href="#43" y="45.591"/><use xlink:href="#44" y="47.762"/></svg><svg x="1920"><use xlink:href="#a"/><use xlink:href="#24"/><use xlink:href="#25" y="2.171"/><use xlink:href="#26" y="4.342"/><use xlink:href="#27" y="6.513"/><use xlink:href="#28" y="8.684"/><use xlink:href="#29" y="10.855"/><use xlink:href="#30" y="13.026"/><use xlink:href="#31" y="15.197"/><use xlink:href="#32" y="17.368"/><use xlink:href="#33" y="19.539"/><use xlink:href="#34" y="21.71"/><use xlink:href="#35" y="23.881"/><use xlink:href="#36" y="26.052"/><use xlink:href="#37" y="28.223"/><use xlink:href="#38" y="30.394"/><use xlink:href="#39" y="32.565"/><use xlink:href="#40" y="34.736"/><use xlink:href="#41" y="36.907"/><use xlink:href="#42" y="39.078"/><use xlink:href="#43" y="43.42"/><use xlink:href="#44" y="45.591"/><use xlink:href="#45" y="47.762"/></svg><svg x="2000"><use xlink:href="#a"/><use xlink:href="#25"/><use xlink:href="#26" y="2.171"/><use xlink:href="#27" y="4.342"/><use xlink:href="#28" y="6.513"/><use xlink:href="#29" y="8.684"/><use xlink:href="#30" y="10.855"/><use xlink:href="#31" y="13.026"/><use xlink:href="#32" y="15.197"/><use xlink:href="#33" y="17.368"/><use xlink:href="#34" y="19.539"/><use xlink:href="#35" y="21.71"/><use xlink:href="#36" y="23.881"/><use xlink:href="#37" y="26.052"/><use xlink:href="#38" y="28.223"/><use xlink:href="#39" y="30.394"/><use xlink:href="#40" y="32.565"/><use xlink:href="#41" y="34.736"/><use xlink:href="#42" y="36.907"/><use xlink:href="#43" y="41.249"/><use xlink:href="#44" y="43.42"/><use xlink:href="#45" y="45.591"/><use xlink:href="#46" y="47.762"/></svg><svg x="2080"><use xlink:href="#a"/><use xlink:href="#27"/><use xlink:href="#28" y="2.171"/><use xlink:href="#29" y="4.342"/><use xlink:href="#30" y="6.513"/><use xlink:href="#31" y="8.684"/><use xlink:href="#32" y="10.855"/><use xlink:href="#33" y="13.026"/><use xlink:href="#34" y="15.197"/><use xlink:href="#35" y="17.368"/><use xlink:href="#36" y="19.539"/><use xlink:href="#37" y="21.71"/><use xlink:href="#38" y="23.881"/><use xlink:href="#39" y="26.052"/><use xlink:href="#40" y="28.223"/><use xlink:href="#41" y="30.394"/><use xlink:href="#42" y="32.565"/><use xlink:href="#43" y="36.907"/><use xlink:href="#44" y="39.078"/><use xlink:href="#45" y="41.249"/><use xlink:href="#46" y="43.42"/><use xlink:href="#47" y="47.762"/></svg><svg x="2160"><use xlink:href="#a"/><use xlink:href="#32"/><use xlink:href="#33" y="2.171"/><use xlink:href="#34" y="4.342"/><use xlink:href="#35" y="6.513"/><use xlink:href="#36" y="8.684"/><use xlink:href="#37" y="10.855"/><use xlink:href="#38" y="13.026"/><use xlink:href="#39" y="15.197"/><use xlink:href="#40" y="17.368"/><use xlink:href="#41" y="19.539"/><use xlink:href="#42" y="21.71"/><use xlink:href="#43" y="26.052"/><use xlink:href="#44" y="28.223"/><use xlink:href="#45" y="30.394"/><use xlink:href="#46" y="32.565"/><use xlink:href="#47" y="36.907"/><use xlink:href="#48" y="39.078"/><use xlink:href="#49" y="41.249"/><use xlink:href="#50" y="43.42"/><use xlink:href="#51" y="45.591"/></svg><svg x="2240"><use xlink:href="#a"/><use xlink:href="#43" y="2.171"/><use xlink:href="#44" y="4.342"/><use xlink:href="#45" y="6.513"/><use xlink:href="#46" y="8.684"/><use xlink:href="#47" y="13.026"/><use xlink:href="#48" y="15.197"/><use xlink:href="#49" y="17.368"/><use xlink:href="#50" y="19.539"/><use xlink:href="#51" y="21.71"/><use xlink:href="#1" y="26.052"/><use xlink:href="#52" y="28.223"/><use xlink:href="#53" y="30.394"/><use xlink:href="#54" y="32.565"/><use xlink:href="#55" y="34.736"/><use xlink:href="#56" y="36.907"/><use xlink:href="#53" y="39.078"/><use xlink:href="#57" y="41.249"/><use xlink:href="#3" y="43.42"/><use xlink:href="#58" y="47.762"/></svg><svg x="2320"><use xlink:href="#a"/><use xlink:href="#45"/><use xlink:href="#46" y="2.171"/><use xlink:href="#47" y="6.513"/><use xlink:href="#48" y="8.684"/><use xlink:href="#49" y="10.855"/><use xlink:href="#50" y="13.026"/><use xlink:href="#51" y="15.197"/><use xlink:href="#1" y="19.539"/><use xlink:href="#52" y="21.71"/><use xlink:href="#53" y="23.881"/><use xlink:href="#54" y="26.052"/><use xlink:href="#55" y="28.223"/><use xlink:href="#56" y="30.394"/><use xlink:href="#53" y="32.565"/><use xlink:href="#57" y="34.736"/><use xlink:href="#3" y="36.907"/><use xlink:href="#58" y="41.249"/><use xlink:href="#59" y="43.42"/><use xlink:href="#60" y="45.591"/><use xlink:href="#61" y="47.762"/></svg><svg x="2400"><use xlink:href="#a"/><use xlink:href="#48"/><use xlink:href="#49" y="2.171"/><use xlink:href="#50" y="4.342"/><use xlink:href="#51" y="6.513"/><use xlink:href="#1" y="10.855"/><use xlink:href="#52" y="13.026"/><use xlink:href="#53" y="15.197"/><use xlink:href="#54" y="17.368"/><use xlink:href="#55" y="19.539"/><use xlink:href="#56" y="21.71"/><use xlink:href="#53" y="23.881"/><use xlink:href="#57" y="26.052"/><use xlink:href="#3" y="28.223"/><use xlink:href="#58" y="32.565"/><use xlink:href="#59" y="34.736"/><use xlink:href="#60" y="36.907"/><use xlink:href="#61" y="39.078"/><use xlink:href="#62" y="41.249"/><use xlink:href="#63" y="43.42"/><use xlink:href="#64" y="45.591"/><use xlink:href="#65" y="47.762"/></svg><svg x="2480"><use xlink:href="#a"/><use xlink:href="#60"/><use xlink:href="#61" y="2.171"/><use xlink:href="#62" y="4.342"/><use xlink:href="#63" y="6.513"/><use xlink:href="#64" y="8.684"/><use xlink:href="#65" y="10.855"/><text x="3.006" y="14.696" class="f">💡</text><text x="6.012" y="14.696" class="f">[PROPOSAL</text><text x="19.038" y="14.696" class="f">]</text><text x="21.042" y="14.696" class="f">05eca338:</text><text x="31.062" y="14.696" class="f">Proposal:</text><text x="41.082" y="14.696" class="f">Implement</text><text x="51.102" y="14.696" class="f">passwordless</text><text x="64.128" y="14.696" class="f">auth</text><text x="69.138" y="14.696" class="f">(magic</text><text x="76.152" y="14.696" class="f">link</text><use xlink:href="#66" y="15.197"/><use xlink:href="#67" y="17.368"/><use xlink:href="#68" y="19.539"/><use xlink:href="#69" y="21.71"/><use xlink:href="#70" y="23.881"/><use xlink:href="#71" y="26.052"/><use xlink:href="#72" y="28.223"/><use xlink:href="#73" y="30.394"/><use xlink:href="#74" y="32.565"/><use xlink:href="#75" y="34.736"/><use xlink:href="#74" y="36.907"/><use xlink:href="#76" y="39.078"/><use xlink:href="#77" y="43.42"/><use xlink:href="#59" y="45.591"/></svg><svg x="2560"><use xlink:href="#a"/><use xlink:href="#66"/><use xlink:href="#67" y="2.171"/><use xlink:href="#68" y="4.342"/><use xlink:href="#69" y="6.513"/><use xlink:href="#70" y="8.684"/><use xlink:href="#71" y="10.855"/><use xlink:href="#72" y="13.026"/><use xlink:href="#73" y="15.197"/><use xlink:href="#74" y="17.368"/><use xlink:href="#75" y="19.539"/><use xlink:href="#74" y="21.71"/><use xlink:href="#76" y="23.881"/><use xlink:href="#77" y="28.223"/><use xlink:href="#59" y="30.394"/><text y="36.406" class="f">🎉</text><text x="3.006" y="36.406" class="f">Demo</text><text x="8.016" y="36.406" class="f">complete!</text><text x="18.036" y="36.406" class="f">The</text><text x="22.044" y="36.406" class="f">Agent</text><text x="28.056" y="36.406" class="f">Meeting</text><text x="36.072" y="36.406" class="f">Platform</text><text x="45.09" y="36.406" class="f">is</text><text x="48.096" y="36.406" class="f">ready</text><text x="54.108" y="36.406" class="f">for</text><text x="58.116" y="36.406" class="f">your</text><text x="63.126" y="36.406" class="f">AI</text><text x="66.132" y="36.406" class="f">agents.</text><text y="40.748" class="f">📚</text><text x="3.006" y="40.748" class="f">Learn</text><text x="9.018" y="40.748" class="f">more:</text><text x="3.006" y="42.919" class="f">•</text><text x="5.01" y="42.919" class="f">SDK:</text><text x="14.028" y="42.919" class="f">sdk/agent_meeting/</text><text x="3.006" y="45.09" class="f">•</text><text x="5.01" y="45.09" class="f">Examples:</text><text x="15.03" y="45.09" class="f">sdk/examples/</text><text x="3.006" y="47.261" class="f">•</text><text x="5.01" y="47.261" class="f">API:</text><text x="14.028" y="47.261" class="f">http://localhost:8000/docs</text><text x="3.006" y="49.432" class="f">•</text><text x="5.01" y="49.432" class="f">Docs:</text><text x="14.028" y="49.432" class="f">docs/</text></svg></svg></g></g></svg></svg>